HIERARCHY
ROOT Hips
{
 OFFSET 0.000000 0.000000 0.000000
 CHANNELS 6 Xposition Yposition Zposition Yrotation Xrotation Zrotation
 JOINT Chest
 {
  OFFSET 0.000000 9.585900 0.002600
  CHANNELS 3 Yrotation Xrotation Zrotation
  JOINT Chest2
  {
   OFFSET 0.000000 9.601200 -0.005300
   CHANNELS 3 Yrotation Xrotation Zrotation
   JOINT Chest3
   {
    OFFSET 0.000000 9.561800 0.000000
    CHANNELS 3 Yrotation Xrotation Zrotation
    JOINT Chest4
    {
     OFFSET 0.000000 9.552100 0.000000
     CHANNELS 3 Yrotation Xrotation Zrotation
     JOINT Neck
     {
      OFFSET 0.000000 14.453000 0.000000
      CHANNELS 3 Yrotation Xrotation Zrotation
      JOINT Head
      {
       OFFSET 0.000000 8.936500 -0.011300
       CHANNELS 3 Yrotation Xrotation Zrotation
       End Site
       {
        OFFSET 0.000000 17.073600 -0.006000
       }
      }
     }
     JOINT RightCollar
     {
      OFFSET -2.921100 9.558500 0.000000
      CHANNELS 3 Yrotation Xrotation Zrotation
      JOINT RightShoulder
      {
       OFFSET -13.519700 0.000000 0.000000
       CHANNELS 3 Yrotation Xrotation Zrotation
       JOINT RightElbow
       {
        OFFSET 0.000000 -29.696600 0.000000
        CHANNELS 3 Yrotation Xrotation Zrotation
        JOINT RightWrist
        {
         OFFSET 0.000000 -24.004700 0.000000
         CHANNELS 3 Yrotation Xrotation Zrotation
         End Site
         {
          OFFSET 0.000000 -17.728500 0.000000
         }
        }
       }
      }
     }
     JOINT LeftCollar
     {
      OFFSET 2.921100 9.558500 0.000000
      CHANNELS 3 Yrotation Xrotation Zrotation
      JOINT LeftShoulder
      {
       OFFSET 13.519700 0.000000 0.000000
       CHANNELS 3 Yrotation Xrotation Zrotation
       JOINT LeftElbow
       {
        OFFSET 0.000000 -29.696600 0.000000
        CHANNELS 3 Yrotation Xrotation Zrotation
        JOINT LeftWrist
        {
         OFFSET 0.000000 -24.004700 0.000000
         CHANNELS 3 Yrotation Xrotation Zrotation
         End Site
         {
          OFFSET 0.000000 -17.728500 0.000000
         }
        }
       }
      }
     }
    }
   }
  }
 }
 JOINT RightHip
 {
  OFFSET -7.771700 -0.012900 -0.001300
  CHANNELS 3 Yrotation Xrotation Zrotation
  JOINT RightKnee
  {
   OFFSET 0.000000 -40.869800 0.001200
   CHANNELS 3 Yrotation Xrotation Zrotation
   JOINT RightAnkle
   {
    OFFSET 0.000000 -39.717900 0.002100
    CHANNELS 3 Yrotation Xrotation Zrotation
    JOINT RightToe
    {
     OFFSET 0.000000 -4.965400 11.033500
     CHANNELS 3 Yrotation Xrotation Zrotation
     End Site
     {
      OFFSET 0.000000 -1.423100 5.872300
     }
    }
   }
  }
 }
 JOINT LeftHip
 {
  OFFSET 7.771700 -0.012900 -0.001300
  CHANNELS 3 Yrotation Xrotation Zrotation
  JOINT LeftKnee
  {
   OFFSET 0.000000 -40.869800 0.001200
   CHANNELS 3 Yrotation Xrotation Zrotation
   JOINT LeftAnkle
   {
    OFFSET 0.000000 -39.717900 0.002100
    CHANNELS 3 Yrotation Xrotation Zrotation
    JOINT LeftToe
    {
     OFFSET 0.000000 -4.965400 11.033500
     CHANNELS 3 Yrotation Xrotation Zrotation
     End Site
     {
      OFFSET 0.000000 -1.423100 5.872300
     }
    }
   }
  }
 }
}
MOTION
Frames: 11
Frame Time: 0.008333
0.000000 85.388000 0.000000 0.000000 -5.767877 0.000000 0.000000 11.653817 0.000000 0.000000 -5.885947 0.000000 0.000000 -0.000000 0.000000 0.000000 -0.000000 0.000000 0.000000 12.528835 0.000000 0.000000 0.711642 0.000000 0.000000 -0.000000 0.000000 0.000000 0.000000 -90.000000 0.000000 -2.309062 0.000000 0.000000 2.309062 0.000000 0.000000 -0.000000 0.000000 0.000000 -0.000000 90.000000 0.000000 -2.309062 0.000000 0.000000 2.309062 0.000000 0.000000 8.520406 0.000000 0.000000 1.905762 0.000000 -0.000000 -4.658285 0.000000 0.000000 -0.000000 0.000000 0.000000 8.520406 0.000000 0.000000 1.905762 0.000000 -0.000000 -4.658285 0.000000 0.000000 -0.000000 0.000000
-46.596279 54.892761 45.328792 -177.569663 -31.442616 -10.765587 0.954873 16.669613 6.583360 0.241787 9.541061 2.509078 0.372047 11.948560 3.157180 0.243251 9.560852 2.511599 2.254229 17.065200 -3.265599 3.144166 -7.689058 -3.988227 0.869445 2.492287 -3.959573 -22.256656 -6.293952 3.160685 -98.163847 -52.109660 123.594022 1.996634 -4.986918 17.910199 -11.693448 3.088135 -2.897289 13.566948 -11.537912 1.823922 114.856502 -51.148317 -132.225509 38.950338 3.864458 -17.032339 -14.774883 -36.072546 1.456538 26.447991 86.716082 21.767088 0.143835 -16.919488 5.448724 -0.105138 0.434306 -0.024137 -15.613347 -46.800976 13.515507 166.646249 78.699700 161.702510 -1.024078 -16.284332 1.694130 -0.811431 -2.733556 -0.411039
-46.593960 54.892008 45.330875 -177.557908 -31.434477 -10.786459 0.929865 16.562072 6.578056 0.227234 9.508900 2.507016 0.351347 11.883826 3.150796 0.227209 9.508952 2.507050 2.285496 17.010323 -3.236142 3.170302 -7.748984 -3.963538 0.925156 2.466938 -3.919319 -22.244138 -6.368237 3.191705 -99.276720 -53.183631 124.268526 2.346390 -4.695874 16.747887 -11.649045 3.031421 -2.922245 13.578211 -11.491928 1.812798 115.996354 -52.152618 -132.680031 38.433971 3.704438 -15.960432 -14.794788 -36.072172 1.482013 26.317079 86.712712 21.628805 0.147551 -16.916759 5.442273 -0.110182 0.433515 -0.016585 -15.656866 -46.807268 13.533134 166.549117 78.691080 161.629290 -1.045502 -16.285122 1.665668 -0.789468 -2.730248 -0.404823
-46.591341 54.891736 45.332488 -177.548753 -31.431477 -10.808941 0.917583 16.496859 6.583657 0.207226 9.430457 2.497248 0.329655 11.814512 3.144460 0.210355 9.453303 2.502462 2.317639 16.974429 -3.196596 3.195079 -7.788594 -3.928348 0.984674 2.448946 -3.875216 -22.238057 -6.449827 3.230485 -100.358276 -54.257414 124.928491 2.709087 -4.314863 15.538072 -11.599204 2.976888 -2.945888 13.596264 -11.446325 1.792575 117.166903 -53.203544 -133.156584 37.886898 3.471758 -14.978902 -14.804862 -36.065959 1.504836 26.211420 86.707928 21.521896 0.144128 -16.913189 5.446237 -0.110856 0.432852 -0.018102 -15.730002 -46.814174 13.560763 166.402658 78.669128 161.490740 -1.025673 -16.255457 1.632249 -0.806145 -2.758479 -0.409712
-46.589018 54.891652 45.333996 -177.524696 -31.427210 -10.838803 0.883763 16.406881 6.577965 0.190164 9.371594 2.492962 0.307747 11.741028 3.138479 0.193289 9.394417 2.498119 2.353440 16.959933 -3.145359 3.221058 -7.805151 -3.881589 1.048848 2.436189 -3.825327 -22.236539 -6.539122 3.271885 -101.348561 -55.304479 125.516691 3.099194 -3.860825 14.305842 -11.535424 2.922976 -2.968456 13.605213 -11.400752 1.763463 118.347119 -54.283726 -133.651050 37.344914 3.156235 -14.058298 -14.832987 -36.055799 1.529729 26.050077 86.701821 21.353446 0.141662 -16.912319 5.454872 -0.108673 0.434078 -0.022228 -15.799619 -46.821732 13.584824 166.287326 78.649845 161.385091 -1.004678 -16.230195 1.609213 -0.826876 -2.784960 -0.401971
-46.582278 54.894556 45.332399 -177.529040 -31.451311 -10.882986 0.878170 16.315388 6.593318 0.176456 9.332676 2.494363 0.286124 11.663887 3.133084 0.176490 9.332632 2.494337 2.393264 16.967485 -3.081526 3.248326 -7.798146 -3.822331 1.115474 2.425254 -3.772026 -22.232003 -6.632137 3.312370 -102.198048 -56.289373 125.987481 3.528666 -3.344985 13.101613 -11.459730 2.867933 -2.992403 13.590858 -11.353700 1.730844 119.518940 -55.369264 -134.148333 36.854128 2.775541 -13.175280 -14.852432 -36.012575 1.579768 25.905724 86.686601 21.209639 0.142579 -16.902480 5.451957 -0.104570 0.430876 -0.030744 -15.866770 -46.805019 13.638437 166.182078 78.622804 161.281283 -0.915263 -16.157641 1.604596 -0.904846 -2.858674 -0.438480
-46.578438 54.894902 45.334402 -177.517823 -31.444900 -10.918072 0.850049 16.218578 6.596195 0.160411 9.268732 2.490759 0.265449 11.584171 3.128009 0.160469 9.268708 2.490821 2.433855 16.996844 -3.003986 3.273163 -7.768038 -3.748574 1.182070 2.412769 -3.717663 -22.216906 -6.728023 3.354808 -102.878827 -57.195424 126.313056 3.983382 -2.781325 11.975215 -11.381440 2.808214 -3.019535 13.542707 -11.302693 1.701960 120.664435 -56.445220 -134.624964 36.444153 2.347314 -12.332717 -14.883949 -36.004086 1.613219 25.800512 86.678096 21.105157 0.151986 -16.896634 5.446999 -0.108834 0.431132 -0.030933 -15.924157 -46.815453 13.673284 166.058038 78.601417 161.176175 -0.894312 -16.134546 1.585039 -0.926183 -2.881794 -0.448550
-46.575516 54.895189 45.336672 -177.513634 -31.435845 -10.944771 0.823069 16.118079 6.594098 0.144723 9.203219 2.487137 0.245205 11.502437 3.122919 0.144756 9.203221 2.487222 2.472023 17.048912 -2.911819 3.292114 -7.713786 -3.658685 1.249903 2.397950 -3.661466 -22.193585 -6.827918 3.403678 -103.396335 -58.043900 126.496649 4.426200 -2.186754 10.954597 -11.302916 2.741891 -3.049980 13.445619 -11.246075 1.680996 121.766115 -57.502436 -135.049532 36.106892 1.886390 -11.538711 -14.918639 -36.002385 1.637579 25.674504 86.667190 20.982749 0.172566 -16.889615 5.435766 -0.108753 0.431763 -0.032706 -15.962095 -46.824185 13.707952 165.993789 78.589885 161.127969 -0.890827 -16.129051 1.573944 -0.930591 -2.888041 -0.449670
-46.572809 54.895751 45.339088 -177.514357 -31.424936 -10.968050 0.798532 16.014060 6.591514 0.128276 9.136448 2.484067 0.223997 11.419031 3.118395 0.128297 9.136456 2.484065 2.506762 17.126801 -2.806737 3.304495 -7.631939 -3.554430 1.318320 2.380438 -3.605883 -22.165973 -6.929579 3.460337 -103.795400 -58.874409 126.569281 4.818888 -1.590257 10.055966 -11.221983 2.667073 -3.088278 13.284861 -11.178525 1.673508 122.809226 -58.527014 -135.393964 35.806635 1.412666 -10.800736 -14.951631 -36.003448 1.666984 25.643171 86.655304 20.948965 0.181854 -16.881779 5.426531 -0.108932 0.432015 -0.034838 -15.995384 -46.833593 13.743659 165.947865 78.581947 161.097348 -0.888721 -16.128035 1.557636 -0.930370 -2.889026 -0.439017
-46.570508 54.896949 45.341178 -177.515363 -31.415168 -10.988741 0.773803 15.910868 6.586492 0.111496 9.069065 2.481817 0.202404 11.334882 3.114982 0.111488 9.069061 2.481786 2.537141 17.231021 -2.692728 3.310180 -7.521713 -3.439839 1.384033 2.355889 -3.552662 -22.136254 -7.028613 3.524349 -104.134120 -59.728118 126.565381 5.142728 -1.038738 9.292527 -11.142891 2.581868 -3.136045 13.064886 -11.098276 1.680246 123.786480 -59.518328 -135.649991 35.506912 0.947636 -10.126177 -14.981380 -36.003547 1.695045 25.652504 86.642235 20.952802 0.184232 -16.872964 5.425283 -0.112651 0.431595 -0.040724 -16.026339 -46.841451 13.781279 165.951468 78.576464 161.108153 -0.880199 -16.123286 1.550551 -0.936069 -2.893520 -0.440841
-46.566016 54.897376 45.346277 -177.509943 -31.383568 -11.024835 0.743926 15.788635 6.594581 0.095126 9.001920 2.480168 0.181346 11.251034 3.112417 0.095042 9.001902 2.480159 2.560797 17.358944 -2.575455 3.308044 -7.385643 -3.320323 1.444315 2.321500 -3.500693 -22.107399 -7.124130 3.594852 -104.465775 -60.639193 126.520971 5.418229 -0.569827 8.659441 -11.072638 2.489525 -3.186484 12.809946 -11.009902 1.687569 124.716052 -60.502514 -135.843948 35.190419 0.504671 -9.517703 -15.025146 -36.020567 1.737810 25.502992 86.628783 20.811968 0.189026 -16.858346 5.421629 -0.108030 0.430043 -0.046789 -16.089081 -46.866909 13.856887 166.018685 78.575595 161.174821 -0.870238 -16.124024 1.546008 -0.942110 -2.889446 -0.439165
